PathFileType	4	(X/Y/Z)	C:\Users\WrightLab\Desktop\Jo\P2_Trial36.trc
DataRate	CameraRate	NumFrames	NumMarkers	Units	OrigDataRate	OrigDataStartFrame	OrigNumFrames
100.00	100.00	       11	19	mm	100.00	481	       641
Frame#	Time	Headset_Front			Headset_Back			Headset_Left			Headset_Right			Left_Shoulder			Right_Shoulder			Sternum			C7			Left Elbow			Right Elbow			Left Wrist			Right Wrist			Left ASIS			Right ASIS			S2			Left Knee			Right Knee			Left Ankle			Right Ankle			
		X1	Y1	Z1	X2	Y2	Z2	X3	Y3	Z3	X4	Y4	Z4	X5	Y5	Z5	X6	Y6	Z6	X7	Y7	Z7	X8	Y8	Z8	X9	Y9	Z9	X10	Y10	Z10	X11	Y11	Z11	X12	Y12	Z12	X13	Y13	Z13	X14	Y14	Z14	X15	Y15	Z15	X16	Y16	Z16	X17	Y17	Z17	X18	Y18	Z18	X19	Y19	Z19	

481	4.800	-196.50107	1556.53027	2096.58423	-21.61341	1635.95154	2009.19006				-250.43739	1621.61340	1975.38770	33.79426	1476.41992	1943.59180				-152.20697	1367.75525	1943.03210				9.79975	1277.90112	2060.39648	-370.82318	1172.60681	1740.11694	112.54536	1198.83179	1994.69727	-439.65778	927.19379	1759.74255	-140.21042	1075.50391	2008.45471	-247.28645	1047.52966	1934.84607	-22.75900	986.52136	1776.41638	-89.67334	525.22437	2089.69312	-254.73788	562.56274	1793.22327	-192.01988	188.35857	2010.85291	-118.98220	224.08733	1676.41492	
482	4.810	-200.93352	1560.05042	2104.49463	-25.45798	1638.77661	2017.06470				-254.00262	1624.27002	1981.56531	29.61944	1478.55603	1954.11450				-156.49805	1369.81360	1950.52979				4.24316	1280.33704	2070.35205	-371.87943	1174.56006	1742.16174	108.41624	1200.50842	2005.86487	-441.11737	929.39105	1759.87976	-143.98589	1077.53552	2016.52747	-251.36263	1049.36926	1942.63623	-25.89340	987.55042	1782.22607	-93.77181	525.71704	2091.97534	-263.72699	565.29053	1807.49280	-188.80931	188.08629	2006.63147	-133.49597	224.93732	1692.39185	
483	4.820	-205.07472	1563.78308	2111.81372	-29.01292	1641.12769	2023.99768				-258.10056	1626.45203	1988.78833	25.00600	1479.89795	1963.34521				-160.71507	1370.83728	1957.88391				-1.95727	1281.68494	2080.47705	-372.78635	1175.89014	1743.77698	104.60609	1202.92029	2017.22974	-442.96652	931.37866	1761.23584	-147.14690	1079.59229	2023.92224	-254.63150	1050.67468	1949.44092	-28.98938	988.99408	1789.69482	-96.65669	525.55194	2093.78003	-272.72842	568.77948	1822.14319	-186.17253	188.31497	2005.01782	-148.46587	225.20071	1711.56628	
484	4.830	-209.43655	1567.28064	2119.21265							-262.12964	1629.11194	1995.64307	20.70490	1481.57288	1974.16016				-165.48784	1372.50562	1966.23645				-7.82257	1284.12634	2090.56860	-373.62634	1178.17871	1746.32312	100.10087	1204.94702	2028.81592	-444.09381	933.43964	1761.09399	-150.77307	1081.16748	2031.04761	-258.40366	1052.87488	1957.56433	-32.65300	989.98804	1797.94409	-99.04518	525.26923	2096.06421	-281.83749	572.53149	1836.78479	-184.23540	188.83049	2004.61609	-161.33006	226.16672	1729.54028	
485	4.840	-214.02335	1570.86353	2126.83936							-265.89590	1631.20593	2002.03125	16.20254	1483.66248	1984.24219				-168.59686	1373.94678	1972.06934				-13.25359	1284.73120	2099.09155	-374.36929	1179.73022	1747.34766	95.51758	1207.34302	2039.94592	-445.34805	935.06183	1761.73181	-153.32562	1081.64917	2036.74023	-261.16904	1053.66223	1964.39941	-36.35228	990.45673	1804.54578	-100.53259	523.36456	2096.53003	-290.94177	575.46313	1853.08496	-181.66943	186.52914	2002.19641	-173.89954	226.35258	1750.01758	
486	4.850	-218.39014	1574.18079	2134.02393	-41.58887	1648.24585	2045.47144				-269.64655	1633.29980	2008.41296	11.51516	1485.00928	1993.35205				-173.49037	1375.41882	1980.85583				-19.51705	1287.02075	2109.64160	-375.02371	1181.56470	1749.01147	91.48465	1209.18860	2051.87256	-446.86850	936.63666	1762.66968	-155.87299	1083.20813	2044.96411	-264.09183	1055.00635	1971.52368	-40.18387	990.91614	1809.93176	-102.55185	521.18964	2096.88647	-300.50845	579.54962	1869.41638	-179.01405	184.77350	2001.93140	-187.73318	225.42484	1767.12622	
487	4.860	-222.84711	1577.64587	2141.15063	-45.32457	1650.22144	2052.32495				-273.77322	1635.65381	2015.31689	7.17913	1486.28894	2003.56042				-177.62338	1376.46887	1988.33203				-25.06204	1287.68140	2117.98706	-375.56967	1182.99951	1750.84314	86.70299	1210.69983	2062.29785	-447.42557	937.76593	1762.72021	-158.59460	1083.61047	2052.66064	-267.06183	1056.40625	1978.40564	-43.70657	992.46112	1815.19324	-103.45919	519.53394	2097.72534	-310.48859	583.27783	1885.95789	-176.29483	183.42470	2001.40820	-202.14008	224.10736	1786.45508	
488	4.870	-227.55396	1581.08325	2148.67383	-49.32335	1652.10681	2059.69189				-277.77087	1637.20129	2022.08167	3.24033	1487.92126	2013.11694				-182.23790	1377.26794	1996.74963				-31.28152	1289.90173	2128.40356	-376.09763	1184.19897	1752.51550	82.25131	1212.36731	2074.41260	-448.86270	938.97589	1763.91748	-161.46266	1083.54822	2059.28760	-270.02631	1056.63672	1984.64233	-47.06923	992.60913	1822.41650	-103.64614	516.34778	2097.83325	-320.60791	587.56433	1902.70215	-174.18732	180.31282	2001.70654	-216.44002	222.95731	1805.24060	
489	4.880	-231.93370	1584.15332	2155.65405	-52.97139	1653.69751	2066.80859				-280.92108	1638.54419	2026.93860	-1.50959	1488.54944	2021.88440				-186.08307	1377.70300	2003.74292				-36.65501	1290.28943	2136.56714	-376.52789	1185.56995	1754.69971	77.50887	1214.00903	2084.84473	-449.59586	939.86237	1765.19275	-163.68207	1083.19470	2067.09009	-272.60883	1057.17065	1990.68457	-50.98012	993.68390	1827.33276	-102.91061	514.32971	2098.12720	-330.65201	592.59918	1916.70618	-171.49979	178.36086	2002.06519	-231.68210	221.40172	1824.11975	
490	4.890	-236.37119	1587.19788	2162.53516	-57.08648	1655.14575	2074.51758				-285.11740	1640.47485	2033.75354	-5.82922	1489.65112	2031.11536				-191.24368	1379.89026	2012.64148				-42.00580	1291.21765	2145.86133	-377.16943	1186.66089	1757.07166	73.48058	1215.24829	2095.18433	-450.01062	940.49561	1766.20911	-165.35219	1082.06470	2073.76416	-275.77164	1057.38000	1997.88818	-54.58945	994.06720	1833.12097	-102.16200	512.20654	2099.07568	-340.13208	595.99731	1931.48853	-168.23112	174.28105	2001.97375	-246.70259	219.48766	1842.28784	
491	4.900	-241.09816	1589.84546	2170.06494	-61.21527	1656.87488	2082.06274				-289.06128	1641.97900	2040.16882	-9.96048	1490.73047	2041.11389				-195.29866	1379.61353	2020.62488				-47.81857	1292.14209	2155.19531	-377.55249	1187.03943	1759.69397	69.31003	1216.26392	2105.68774	-450.17606	940.95862	1767.15686	-168.13101	1081.04321	2080.12329	-278.16391	1057.14685	2004.73914	-58.14571	994.29065	1840.01685	-100.33672	509.73389	2099.22021	-349.26852	600.74512	1944.18835	-166.30592	172.76036	2004.73022	-260.30838	214.76872	1865.79541	
